<?xml version="1.0" encoding="utf-8"?>
<!-- Generator: Adobe Illustrator 26.0.1, SVG Export Plug-In . SVG Version: 6.00 Build 0)  -->
<svg version="1.1" id="Layer_1" xmlns="http://www.w3.org/2000/svg" xmlns:xlink="http://www.w3.org/1999/xlink" x="0px" y="0px"
	 viewBox="0 0 40 40" style="enable-background:new 0 0 40 40;" xml:space="preserve">
<style type="text/css">
	.st0{fill-rule:evenodd;clip-rule:evenodd;fill:#2EF2FF;}
</style>
<path class="st0" d="M35.5,39.7c1.1,0,2-0.9,2-1.9l0.1-16.5c0-1.2-1.4-1.8-2.3-1l-7.8,7.8c-0.4,0.4-0.6,0.8-0.6,1.3l-0.2,8.8
	c0,0.7,0.6,1.4,1.3,1.4L35.5,39.7z M12.5,17.7c-1.2,1.2-1.2,3.2,0,4.4l5.4,5.5c1.2,1.2,3.1,1.2,4.3,0l5.3-5.4c1.2-1.2,1.2-3.2,0-4.4
	l-5.4-5.5c-1.2-1.2-3.1-1.2-4.3,0L12.5,17.7z M4.2,0c-1.1,0-2,0.9-2,1.9L2.2,18.4c0,1.2,1.4,1.8,2.3,1l7.8-7.8
	c0.4-0.4,0.6-0.8,0.6-1.3l0.2-8.8c0-0.7-0.6-1.4-1.3-1.4L4.2,0z M28.1,0.1c-0.7,0-1.3,0.6-1.3,1.4l0.2,8.8c0,0.5,0.2,1,0.6,1.3
	l7.8,7.8c0.8,0.8,2.3,0.2,2.3-1L37.4,2c0-1.1-0.9-1.9-2-1.9L28.1,0.1z M11.6,39.7c0.7,0,1.3-0.6,1.3-1.4l-0.2-8.8
	c0-0.5-0.2-1-0.6-1.3l-7.8-7.8c-0.8-0.8-2.3-0.2-2.3,1l0.1,16.5c0,1.1,0.9,1.9,2,1.9L11.6,39.7z"/>
</svg>
