<?xml version="1.0" encoding="utf-8"?>
<!-- Generator: Adobe Illustrator 26.0.1, SVG Export Plug-In . SVG Version: 6.00 Build 0)  -->
<svg version="1.1" id="Layer_1" xmlns="http://www.w3.org/2000/svg" xmlns:xlink="http://www.w3.org/1999/xlink" x="0px" y="0px"
	 viewBox="0 0 162 56" style="enable-background:new 0 0 162 56;" xml:space="preserve">
<style type="text/css">
	.st0{fill:#3C52D9;}
	.st1{fill:#2EF2FF;}
	.st2{fill:#EAEDFF;}
</style>
<path class="st0" d="M46.9,7.2L47,25.4c0,0.9-1.5,1.3-2.4,0.7l-12.6-8.7c-0.4-0.3-0.6-0.6-0.6-1l-0.1-9.7c0,0,0,0,0,0
	c0-0.5,0.6-0.9,1.4-0.9l12,0C46,5.7,46.9,6.4,46.9,7.2C46.9,7.2,46.9,7.2,46.9,7.2z M46.3,48.8c0,0.8-0.9,1.4-2.1,1.4l-12,0
	c-0.7,0-1.4-0.4-1.4-0.9c0,0,0,0,0,0l0.1-9.7c0-0.4,0.2-0.7,0.6-1l12.6-8.7c0.9-0.6,2.4-0.2,2.4,0.7L46.3,48.8
	C46.3,48.8,46.3,48.8,46.3,48.8z M2.9,7.2c0-0.8,0.9-1.4,2.1-1.4l12,0c0.7,0,1.4,0.4,1.4,0.9c0,0,0,0,0,0l-0.1,9.7
	c0,0.4-0.2,0.7-0.6,1L5.2,26.1c-0.9,0.6-2.4,0.2-2.4-0.7L2.9,7.2C2.9,7.2,2.9,7.2,2.9,7.2z M3.5,48.8L3.4,30.6
	c0-0.9,1.5-1.3,2.4-0.7l12.6,8.7c0.4,0.3,0.6,0.6,0.6,1l0.1,9.7c0,0,0,0,0,0c0,0.5-0.6,0.9-1.4,0.9l-12,0
	C4.4,50.3,3.5,49.6,3.5,48.8C3.5,48.8,3.5,48.8,3.5,48.8z"/>
<g>
	<path class="st1" d="M14.4,26l8.5-7.9c1.1-1.1,3-1.1,4.1,0l8.6,8c1.1,1.1,1.1,2.8,0,3.8l-8.5,7.9c-1.1,1.1-3,1.1-4.1,0l-8.6-8
		C13.2,28.8,13.2,27.1,14.4,26z"/>
</g>
<g>
	<path class="st2" d="M49.1,39.9l7.6-23.8h8.6L73,39.9h-7.1l-2.7-9.2c-0.6-2-1.1-4.1-1.6-6.2c-0.5-2.1-1-4.2-1.5-6.3h1.5
		c-0.4,2.1-0.9,4.2-1.4,6.3c-0.5,2.1-1,4.2-1.6,6.2l-2.6,9.2H49.1z M54.7,35.5v-4.9h12.7v4.9H54.7z"/>
	<path class="st2" d="M85.1,40.2c-2.3,0-4.2-0.5-5.9-1.5c-1.7-1-3-2.4-4-4.2c-1-1.8-1.4-4-1.4-6.5c0-2.6,0.5-4.8,1.5-6.7
		c1-1.8,2.4-3.2,4.1-4.2s3.6-1.4,5.7-1.4c1.4,0,2.7,0.2,3.8,0.6c1.2,0.4,2.2,1,3.2,1.7c0.9,0.7,1.7,1.6,2.2,2.6c0.6,1,0.9,2.1,1,3.3
		h-6.4c-0.1-0.4-0.2-0.8-0.5-1.1c-0.2-0.3-0.5-0.6-0.8-0.8c-0.3-0.2-0.7-0.4-1.1-0.5c-0.4-0.1-0.9-0.2-1.4-0.2c-1,0-1.9,0.3-2.7,0.8
		c-0.7,0.5-1.3,1.3-1.7,2.2c-0.4,1-0.6,2.2-0.6,3.5c0,1.4,0.2,2.6,0.6,3.6s0.9,1.7,1.7,2.3c0.7,0.5,1.6,0.8,2.7,0.8
		c0.9,0,1.7-0.1,2.4-0.4c0.6-0.3,1.1-0.7,1.4-1.2c0.3-0.5,0.5-1.1,0.5-1.8l1.1,0.1h-5.3v-4.6h10.3v3.3c0,2.1-0.4,4-1.3,5.5
		c-0.9,1.5-2.1,2.7-3.7,3.5C89,39.8,87.1,40.2,85.1,40.2z"/>
	<path class="st2" d="M98.9,39.9V16.1h16.9v5.3h-10.6v3.9h9.8v5.1h-9.8v4.1h10.6v5.3H98.9z"/>
	<path class="st2" d="M119.3,39.9V16.1h9.9c1.7,0,3.3,0.3,4.6,1c1.3,0.6,2.3,1.6,3,2.8c0.7,1.2,1.1,2.7,1.1,4.3
		c0,1.7-0.4,3.1-1.1,4.3c-0.7,1.2-1.8,2.1-3.1,2.7c-1.3,0.6-2.9,0.9-4.7,0.9h-5.9v-5h4.8c0.7,0,1.3-0.1,1.9-0.3
		c0.5-0.2,0.9-0.5,1.2-0.9c0.3-0.4,0.4-1,0.4-1.6s-0.1-1.2-0.4-1.6c-0.3-0.4-0.7-0.7-1.2-1c-0.5-0.2-1.1-0.3-1.9-0.3h-2.4v18.5
		H119.3z M131.9,39.9L126.4,29h6.6l5.7,10.9H131.9z"/>
	<path class="st2" d="M141.3,39.9V16.1h16.9v5.3h-10.6v3.9h9.8v5.1h-9.8v4.1h10.6v5.3H141.3z"/>
</g>
</svg>
